<?xml version="1.0" encoding="UTF-8" standalone="no"?>
<!DOCTYPE svg PUBLIC "-//W3C//DTD SVG 1.1//EN" "http://www.w3.org/Graphics/SVG/1.1/DTD/svg11.dtd">
<!-- Gegenereerd door Microsoft Visio, SVG Export Beheerproces.svg Pagina-1 -->
<svg xmlns="http://www.w3.org/2000/svg" xmlns:xlink="http://www.w3.org/1999/xlink" xmlns:ev="http://www.w3.org/2001/xml-events"
		xmlns:v="http://schemas.microsoft.com/visio/2003/SVGExtensions/" width="8.30225in" height="4.53512in"
		viewBox="0 0 597.762 326.529" xml:space="preserve" color-interpolation-filters="sRGB" class="st20">
	<v:documentProperties v:langID="1043" v:metric="true" v:viewMarkup="false"/>

	<style type="text/css">
	<![CDATA[
		.st1 {visibility:visible}
		.st2 {fill:#5b9bd5;fill-opacity:0.22;filter:url(#filter_2)}
		.st3 {fill:none;filter:url(#filter_2);stroke:#5b9bd5;stroke-opacity:0.22}
		.st4 {fill:#ffffff}
		.st5 {stroke:#000000;stroke-width:0.25}
		.st6 {fill:#000000;font-family:Calibri;font-size:0.833336em}
		.st7 {fill:#5b9bd5;fill-opacity:0.22;filter:url(#filter_2);stroke:#5b9bd5;stroke-opacity:0.22}
		.st8 {fill:#000000;stroke:#000000;stroke-width:0.25}
		.st9 {font-size:1em}
		.st10 {marker-end:url(#mrkr4-47);stroke:#000000;stroke-linecap:round;stroke-linejoin:round;stroke-width:1}
		.st11 {fill:#000000;fill-opacity:1;stroke:#000000;stroke-opacity:1;stroke-width:0.28409090909091}
		.st12 {fill:#000000;stroke:#ffffff;stroke-width:0.25}
		.st13 {fill:#ffffff;stroke:none;stroke-linecap:butt;stroke-width:7.2}
		.st14 {fill:#000000;font-family:Calibri;font-size:0.666664em}
		.st15 {fill:#000000}
		.st16 {fill:#5b9bd5;fill-opacity:0.25;filter:url(#filter_2);stroke:#5b9bd5;stroke-opacity:0.25}
		.st17 {fill:#000000;stroke:#000000;stroke-width:0.75}
		.st18 {fill:#ffffff;stroke:none;stroke-linecap:butt}
		.st19 {marker-end:url(#mrkr4-47);stroke:#000000;stroke-dasharray:0,3;stroke-linecap:round;stroke-linejoin:round;stroke-width:1}
		.st20 {fill:none;fill-rule:evenodd;font-size:12px;overflow:visible;stroke-linecap:square;stroke-miterlimit:3}
	]]>
	</style>

	<defs id="Markers">
		<g id="lend4">
			<path d="M 2 1 L 0 0 L 2 -1 L 2 1 " style="stroke:none"/>
		</g>
		<marker id="mrkr4-47" class="st11" v:arrowType="4" v:arrowSize="2" v:setback="7.04" refX="-7.04" orient="auto"
				markerUnits="strokeWidth" overflow="visible">
			<use xlink:href="#lend4" transform="scale(-3.52,-3.52) "/>
		</marker>
	</defs>
	<defs id="Filters">
		<filter id="filter_2">
			<feGaussianBlur stdDeviation="2"/>
		</filter>
	</defs>
	<g v:mID="0" v:index="1" v:groupContext="foregroundPage">
		<title>Pagina-1</title>
		<v:pageProperties v:drawingScale="0.0393701" v:pageScale="0.0393701" v:drawingUnits="24" v:shadowOffsetX="8.50394"
				v:shadowOffsetY="-8.50394"/>
		<v:layer v:name="Stroomdiagram" v:index="0"/>
		<v:layer v:name="Verbindingslijn" v:index="1"/>
		<g id="shape13-1" v:mID="13" v:groupContext="shape" v:layerMember="0" transform="translate(20.6654,-278.605)">
			<title>Persoon</title>
			<desc>Gebruiker</desc>
			<v:userDefs>
				<v:ud v:nameU="visVersion" v:prompt="" v:val="VT0(15):26"/>
				<v:ud v:nameU="ConnGap" v:prompt="" v:val="VT0(0.00012908222537757):24"/>
			</v:userDefs>
			<v:textBlock v:margins="rect(4,4,4,4)" v:tabSpace="42.5197"/>
			<v:textRect cx="11.2252" cy="336.531" width="50.85" height="20.0036"/>
			<g id="shadow13-2" v:groupContext="shadow" v:shadowOffsetX="0.345598" v:shadowOffsetY="-1.97279" v:shadowType="1"
					transform="matrix(1,0,0,1,0.345598,1.97279)" class="st1">
				<path d="M18.14 293.93 L4.32 293.93 C3.32 293.93 2.4 294.25 1.67 294.81 C1.17 295.2 0.75 295.69 0.45 296.26 C0.16
							 296.83 0 297.46 0 298.14 L0 314.16 L3.78 314.16 L3.78 326.53 L18.52 326.53 L18.52 314.16 L22.45 314.16
							 L22.45 298.14 C22.45 297.17 22.11 296.27 21.54 295.56 C21.15 295.06 20.64 294.65 20.06 294.37 C19.48
							 294.08 18.83 293.93 18.14 293.93 ZM17.68 286 A6.45673 6.23934 -180 1 0 4.77 286 A6.45673 6.23934 -180
							 1 0 17.68 286 Z" class="st2"/>
				<path d="M18.14 293.93 L4.32 293.93 C3.32 293.93 2.4 294.25 1.67 294.81 C1.17 295.2 0.75 295.69 0.45 296.26 C0.16
							 296.83 0 297.46 0 298.14 L0 314.16 L3.78 314.16 L3.78 326.53 L18.52 326.53 L18.52 314.16 L22.45 314.16
							 L22.45 298.14 C22.45 297.17 22.11 296.27 21.54 295.56 C21.15 295.06 20.64 294.65 20.06 294.37 C19.48
							 294.08 18.83 293.93 18.14 293.93" class="st3"/>
				<path d="M11.23 326.53 L11.23 316.64" class="st3"/>
				<path d="M3.78 314.16 L3.78 305.63" class="st3"/>
				<path d="M18.52 314.16 L18.52 305.63" class="st3"/>
				<path d="M17.68 286 A6.45673 6.23934 -180 1 0 4.77 286 A6.45673 6.23934 -180 1 0 17.68 286" class="st3"/>
			</g>
			<path d="M18.14 293.93 L4.32 293.93 C3.32 293.93 2.4 294.25 1.67 294.81 C1.17 295.2 0.75 295.69 0.45 296.26 C0.16 296.83
						 0 297.46 0 298.14 L0 314.16 L3.78 314.16 L3.78 326.53 L18.52 326.53 L18.52 314.16 L22.45 314.16 L22.45 298.14
						 C22.45 297.17 22.11 296.27 21.54 295.56 C21.15 295.06 20.64 294.65 20.06 294.37 C19.48 294.08 18.83 293.93
						 18.14 293.93 ZM17.68 286 A6.45673 6.23934 -180 1 0 4.77 286 A6.45673 6.23934 -180 1 0 17.68 286 Z"
					class="st4"/>
			<path d="M18.14 293.93 L4.32 293.93 C3.32 293.93 2.4 294.25 1.67 294.81 C1.17 295.2 0.75 295.69 0.45 296.26 C0.16 296.83
						 0 297.46 0 298.14 L0 314.16 L3.78 314.16 L3.78 326.53 L18.52 326.53 L18.52 314.16 L22.45 314.16 L22.45 298.14
						 C22.45 297.17 22.11 296.27 21.54 295.56 C21.15 295.06 20.64 294.65 20.06 294.37 C19.48 294.08 18.83 293.93
						 18.14 293.93" class="st5"/>
			<path d="M11.23 326.53 L11.23 316.64" class="st5"/>
			<path d="M3.78 314.16 L3.78 305.63" class="st5"/>
			<path d="M18.52 314.16 L18.52 305.63" class="st5"/>
			<path d="M17.68 286 A6.45673 6.23934 -180 1 0 4.77 286 A6.45673 6.23934 -180 1 0 17.68 286" class="st5"/>
			<text x="-9.07" y="339.53" class="st6" v:langID="1043"><v:paragraph v:horizAlign="1"/><v:tabList/>Gebruiker</text>		</g>
		<g id="group14-18" transform="translate(6.37875,-158.133)" v:mID="14" v:groupContext="group" v:layerMember="0">
			<v:userDefs>
				<v:ud v:nameU="visVersion" v:prompt="" v:val="VT0(15):26"/>
				<v:ud v:nameU="ConnGap" v:prompt="" v:val="VT0(0.00012908222537757):24"/>
			</v:userDefs>
			<title>Werkblad</title>
			<desc>Voorstel tot wijziging of vraag</desc>
			<g id="shape15-19" v:mID="15" v:groupContext="shape" v:layerMember="0">
				<title>Blad.15</title>
				<g id="shadow15-20" v:groupContext="shadow" v:shadowOffsetX="0.345598" v:shadowOffsetY="-1.97279" v:shadowType="1"
						transform="matrix(1,0,0,1,0.345598,1.97279)" class="st1">
					<path d="M51.02 269.16 L38.34 255.66 L0 255.66 L0 326.53 L51.02 326.53 L51.02 269.16 Z" class="st7"/>
				</g>
				<path d="M51.02 269.16 L38.34 255.66 L0 255.66 L0 326.53 L51.02 326.53 L51.02 269.16 Z" class="st8"/>
			</g>
			<g id="shape16-24" v:mID="16" v:groupContext="shape" v:layerMember="0" transform="translate(5.31496,-5.53642)">
				<title>Blad.16</title>
				<v:userDefs>
					<v:ud v:nameU="SurroundingRegionColor" v:prompt="" v:val="VT0(1):26"/>
					<v:ud v:nameU="SurroundingRegionColor" v:prompt="" v:val="VT5(#000000)"/>
				</v:userDefs>
				<g id="shadow16-25" v:groupContext="shadow" v:shadowOffsetX="0.345598" v:shadowOffsetY="-1.97279" v:shadowType="1"
						transform="matrix(1,0,0,1,0.345598,1.97279)" class="st1">
					<path d="M0 273.38 L12.1 273.38 L12.1 271.88 L0 271.88 L0 273.38 ZM0 280.02 L32.55 280.02 L32.55 278.52 L0 278.52
								 L0 280.02 ZM32.69 261.48 L45.18 274.76 L32.66 274.74 L32.69 261.48 ZM0 326.53 L0 286.67 L40.39 286.67
								 L40.39 326.53 L0 326.53 Z" class="st2"/>
				</g>
				<path d="M0 273.38 L12.1 273.38 L12.1 271.88 L0 271.88 L0 273.38 ZM0 280.02 L32.55 280.02 L32.55 278.52 L0 278.52
							 L0 280.02 ZM32.69 261.48 L45.18 274.76 L32.66 274.74 L32.69 261.48 ZM0 326.53 L0 286.67 L40.39 286.67
							 L40.39 326.53 L0 326.53 Z" class="st4"/>
			</g>
			<g id="shape17-32" v:mID="17" v:groupContext="shape" v:layerMember="0" transform="translate(7.44094,-7.75098)">
				<title>Blad.17</title>
				<g id="shadow17-33" v:groupContext="shadow" v:shadowOffsetX="0.345598" v:shadowOffsetY="-1.97279" v:shadowType="1"
						transform="matrix(1,0,0,1,0.345598,1.97279)" class="st1">
					<path d="M25.82 302.33 L36.14 302.33 L36.14 296.95 L25.82 296.95 L25.82 302.33 ZM25.82 310.39 L36.14 310.39 L36.14
								 305.02 L25.82 305.02 L25.82 310.39 ZM25.82 318.46 L36.14 318.46 L36.14 313.08 L25.82 313.08 L25.82
								 318.46 ZM25.82 326.53 L36.14 326.53 L36.14 321.15 L25.82 321.15 L25.82 326.53 ZM12.91 302.33 L23.23
								 302.33 L23.23 296.95 L12.91 296.95 L12.91 302.33 ZM12.91 310.39 L23.23 310.39 L23.23 305.02 L12.91
								 305.02 L12.91 310.39 ZM12.91 318.46 L23.23 318.46 L23.23 313.08 L12.91 313.08 L12.91 318.46 ZM12.91
								 326.53 L23.23 326.53 L23.23 321.15 L12.91 321.15 L12.91 326.53 ZM0 302.33 L10.33 302.33 L10.33 296.95
								 L0 296.95 L0 302.33 ZM0 310.39 L10.33 310.39 L10.33 305.02 L0 305.02 L0 310.39 ZM0 318.46 L10.33
								 318.46 L10.33 313.08 L0 313.08 L0 318.46 ZM0 326.53 L10.33 326.53 L10.33 321.15 L0 321.15 L0 326.53
								 Z" class="st7"/>
				</g>
				<path d="M25.82 302.33 L36.14 302.33 L36.14 296.95 L25.82 296.95 L25.82 302.33 ZM25.82 310.39 L36.14 310.39 L36.14
							 305.02 L25.82 305.02 L25.82 310.39 ZM25.82 318.46 L36.14 318.46 L36.14 313.08 L25.82 313.08 L25.82 318.46
							 ZM25.82 326.53 L36.14 326.53 L36.14 321.15 L25.82 321.15 L25.82 326.53 ZM12.91 302.33 L23.23 302.33
							 L23.23 296.95 L12.91 296.95 L12.91 302.33 ZM12.91 310.39 L23.23 310.39 L23.23 305.02 L12.91 305.02 L12.91
							 310.39 ZM12.91 318.46 L23.23 318.46 L23.23 313.08 L12.91 313.08 L12.91 318.46 ZM12.91 326.53 L23.23
							 326.53 L23.23 321.15 L12.91 321.15 L12.91 326.53 ZM0 302.33 L10.33 302.33 L10.33 296.95 L0 296.95 L0
							 302.33 ZM0 310.39 L10.33 310.39 L10.33 305.02 L0 305.02 L0 310.39 ZM0 318.46 L10.33 318.46 L10.33 313.08
							 L0 313.08 L0 318.46 ZM0 326.53 L10.33 326.53 L10.33 321.15 L0 321.15 L0 326.53 Z" class="st8"/>
			</g>
			<g id="shape14-37" v:mID="14" v:groupContext="groupContent" v:layerMember="0">
				<v:textBlock v:margins="rect(4,4,4,4)" v:tabSpace="42.5197"/>
				<v:textRect cx="25.5118" cy="348.531" width="61" height="44.0037"/>
				<g id="shadow14-38" v:groupContext="shadow" v:shadowOffsetX="0.345598" v:shadowOffsetY="-1.97279" v:shadowType="1"
						transform="matrix(1,0,0,1,0.345598,1.97279)" class="st1"/>
				<text x="1.28" y="339.53" class="st6" v:langID="1043"><v:paragraph v:horizAlign="1"/><v:tabList/>Voorstel tot <v:newlineChar/><tspan
							x="7.99" dy="1.2em" class="st9">wijziging <v:newlineChar/></tspan><tspan x="9.07" dy="1.2em"
							class="st9">of vraag</tspan></text>			</g>
		</g>
		<g id="shape18-42" v:mID="18" v:groupContext="shape" v:layerMember="1" transform="translate(24.8039,-278.596)">
			<title>Dynamische verbindingslijn</title>
			<path d="M7.09 326.53 L7.09 369.08" class="st10"/>
		</g>
		<g id="group23-48" transform="translate(138.19,-168.054)" v:mID="23" v:groupContext="group" v:layerMember="0">
			<v:userDefs>
				<v:ud v:nameU="visVersion" v:prompt="" v:val="VT0(15):26"/>
				<v:ud v:nameU="ConnGap" v:prompt="" v:val="VT0(0.00012908222537757):24"/>
			</v:userDefs>
			<title>Gebruiker</title>
			<desc>Beheerorganisatie</desc>
			<g id="shape24-49" v:mID="24" v:groupContext="shape" v:layerMember="0" transform="translate(26.1962,-2.27374E-13)">
				<title>Blad.24</title>
				<g id="shadow24-50" v:groupContext="shadow" v:shadowOffsetX="0.345598" v:shadowOffsetY="-1.97279" v:shadowType="1"
						transform="matrix(1,0,0,1,0.345598,1.97279)" class="st1">
					<path d="M40.8 294.24 A5.17725 4.97112 -180 1 0 30.45 294.24 A5.17725 4.97112 -180 1 0 40.8 294.24 ZM41.17 300.55
								 L29.96 300.55 C29.15 300.55 28.41 300.82 27.82 301.26 C27.41 301.57 27.07 301.96 26.83 302.41 C26.59
								 302.86 26.46 303.37 26.46 303.91 L26.46 316.67 L29.53 316.67 L29.53 326.53 L41.48 326.53 L41.48
								 316.67 L44.67 316.67 L44.67 303.91 C44.67 303.14 44.4 302.42 43.93 301.85 C43.61 301.46 43.2 301.13
								 42.73 300.91 C42.26 300.68 41.73 300.55 41.17 300.55 Z" class="st2"/>
					<path d="M40.8 294.24 A5.17725 4.97112 -180 1 0 30.45 294.24 A5.17725 4.97112 -180 1 0 40.8 294.24" class="st3"/>
					<path d="M41.17 300.55 L29.96 300.55 C29.15 300.55 28.41 300.82 27.82 301.26 C27.41 301.57 27.07 301.96 26.83
								 302.41 C26.59 302.86 26.46 303.37 26.46 303.91 L26.46 316.67 L29.53 316.67 L29.53 326.53 L41.48
								 326.53 L41.48 316.67 L44.67 316.67 L44.67 303.91 C44.67 303.14 44.4 302.42 43.93 301.85 C43.61 301.46
								 43.2 301.13 42.73 300.91 C42.26 300.68 41.73 300.55 41.17 300.55" class="st3"/>
					<path d="M35.57 326.53 L35.57 318.65" class="st3"/>
					<path d="M29.53 316.67 L29.53 309.88" class="st3"/>
					<path d="M41.48 316.67 L41.48 309.88" class="st3"/>
					<path d="M0 316.67 L26.46 316.67" class="st3"/>
				</g>
				<path d="M40.8 294.24 A5.17725 4.97112 -180 1 0 30.45 294.24 A5.17725 4.97112 -180 1 0 40.8 294.24 ZM41.17 300.55
							 L29.96 300.55 C29.15 300.55 28.41 300.82 27.82 301.26 C27.41 301.57 27.07 301.96 26.83 302.41 C26.59
							 302.86 26.46 303.37 26.46 303.91 L26.46 316.67 L29.53 316.67 L29.53 326.53 L41.48 326.53 L41.48 316.67
							 L44.67 316.67 L44.67 303.91 C44.67 303.14 44.4 302.42 43.93 301.85 C43.61 301.46 43.2 301.13 42.73 300.91
							 C42.26 300.68 41.73 300.55 41.17 300.55 Z" class="st4"/>
				<path d="M40.8 294.24 A5.17725 4.97112 -180 1 0 30.45 294.24 A5.17725 4.97112 -180 1 0 40.8 294.24" class="st5"/>
				<path d="M41.17 300.55 L29.96 300.55 C29.15 300.55 28.41 300.82 27.82 301.26 C27.41 301.57 27.07 301.96 26.83 302.41
							 C26.59 302.86 26.46 303.37 26.46 303.91 L26.46 316.67 L29.53 316.67 L29.53 326.53 L41.48 326.53 L41.48
							 316.67 L44.67 316.67 L44.67 303.91 C44.67 303.14 44.4 302.42 43.93 301.85 C43.61 301.46 43.2 301.13
							 42.73 300.91 C42.26 300.68 41.73 300.55 41.17 300.55" class="st5"/>
				<path d="M35.57 326.53 L35.57 318.65" class="st5"/>
				<path d="M29.53 316.67 L29.53 309.88" class="st5"/>
				<path d="M41.48 316.67 L41.48 309.88" class="st5"/>
				<path d="M0 316.67 L26.46 316.67" class="st5"/>
			</g>
			<g id="shape25-67" v:mID="25" v:groupContext="shape" v:layerMember="0" transform="translate(0,-15.8363)">
				<title>Blad.25</title>
				<g id="shadow25-68" v:groupContext="shadow" v:shadowOffsetX="0.345598" v:shadowOffsetY="-1.97279" v:shadowType="1"
						transform="matrix(1,0,0,1,0.345598,1.97279)" class="st1">
					<path d="M41.43 294.41 C41.43 293.69 41.18 293.04 40.75 292.52 C40.46 292.16 40.08 291.87 39.65 291.66 C39.23
								 291.46 38.74 291.34 38.23 291.34 L6.97 291.34 C6.22 291.34 5.53 291.59 4.99 292 C4.62 292.28 4.31
								 292.64 4.1 293.05 C3.88 293.46 3.77 293.92 3.77 294.41 L3.77 314.27 L41.43 314.27 L41.43 294.41
								 ZM41.61 316.7 L3.48 316.7 L0 322.69 L0 326.53 L45.31 326.53 L45.31 322.7 L41.61 316.7 Z"
							class="st7"/>
				</g>
				<path d="M41.43 294.41 C41.43 293.69 41.18 293.04 40.75 292.52 C40.46 292.16 40.08 291.87 39.65 291.66 C39.23 291.46
							 38.74 291.34 38.23 291.34 L6.97 291.34 C6.22 291.34 5.53 291.59 4.99 292 C4.62 292.28 4.31 292.64 4.1
							 293.05 C3.88 293.46 3.77 293.92 3.77 294.41 L3.77 314.27 L41.43 314.27 L41.43 294.41 ZM41.61 316.7 L3.48
							 316.7 L0 322.69 L0 326.53 L45.31 326.53 L45.31 322.7 L41.61 316.7 Z" class="st8"/>
			</g>
			<g id="shape26-72" v:mID="26" v:groupContext="shape" v:layerMember="0" transform="translate(6.27128,-30.5037)">
				<title>Blad.26</title>
				<v:userDefs>
					<v:ud v:nameU="SurroundingRegionColor" v:prompt="" v:val="VT0(1):26"/>
					<v:ud v:nameU="SurroundingRegionColor" v:prompt="" v:val="VT5(#000000)"/>
				</v:userDefs>
				<path d="M32.65 326.53 L32.65 309.08 C32.65 308.96 32.63 308.86 32.57 308.77 C32.51 308.65 32.41 308.56 32.29 308.5
							 C32.19 308.44 32.08 308.42 31.96 308.41 L0.69 308.41 C0.57 308.41 0.46 308.44 0.37 308.49 C0.25 308.56
							 0.15 308.65 0.08 308.76 C0.03 308.86 0 308.96 0 309.08 L0 326.53 L32.65 326.53 Z" class="st12"/>
			</g>
			<g id="shape27-74" v:mID="27" v:groupContext="shape" v:layerMember="0" transform="translate(3.88841,-20.3859)">
				<title>Blad.27</title>
				<v:userDefs>
					<v:ud v:nameU="SurroundingRegionColor" v:prompt="" v:val="VT0(1):26"/>
					<v:ud v:nameU="SurroundingRegionColor" v:prompt="" v:val="VT5(#000000)"/>
				</v:userDefs>
				<path d="M1.89 323.29 L0 326.53 L37.45 326.53 L35.56 323.29 L1.89 323.29 Z" class="st4"/>
			</g>
			<g id="shape23-77" v:mID="23" v:groupContext="groupContent" v:layerMember="0">
				<v:textBlock v:margins="rect(4,4,4,4)" v:tabSpace="42.5197"/>
				<v:textRect cx="35.4331" cy="336.531" width="84.5" height="20.0036"/>
				<g id="shadow23-78" v:groupContext="shadow" v:shadowOffsetX="0.345598" v:shadowOffsetY="-1.97279" v:shadowType="1"
						transform="matrix(1,0,0,1,0.345598,1.97279)" class="st1"/>
				<text x="-1.68" y="339.53" class="st6" v:langID="1043"><v:paragraph v:horizAlign="1"/><v:tabList/>Beheerorganisatie</text>			</g>
		</g>
		<g id="shape28-80" v:mID="28" v:groupContext="shape" v:layerMember="1" transform="translate(173.623,-219.087)">
			<title>Dynamische verbindingslijn.28</title>
			<desc>Antwoord op vraag</desc>
			<v:textBlock v:margins="rect(4,4,4,4)" v:tabSpace="42.5197"/>
			<v:textRect cx="-23.7969" cy="243.625" width="44.29" height="27.2035"/>
			<path d="M0 326.53 L0 243.62 L-123.46 243.62" class="st10"/>
			<rect v:rectContext="textBkgnd" x="-40.1268" y="234.025" width="32.6599" height="19.1997" class="st13"/>
			<text x="-40.13" y="241.23" class="st14" v:langID="1043"><v:paragraph v:horizAlign="1"/><v:tabList/>Antwoord <v:newlineChar/><tspan
						x="-37.83" dy="1.2em" class="st9">op vraag</tspan></text>		</g>
		<g id="group30-88" transform="translate(138.19,-37.6602)" v:mID="30" v:groupContext="group" v:layerMember="0">
			<v:userDefs>
				<v:ud v:nameU="visVersion" v:prompt="" v:val="VT0(15):26"/>
				<v:ud v:nameU="ConnGap" v:prompt="" v:val="VT0(0.00012908222537757):24"/>
			</v:userDefs>
			<title>Executive</title>
			<desc>Technisch overleg</desc>
			<g id="shape31-89" v:mID="31" v:groupContext="shape" v:layerMember="0" transform="translate(27.2562,0)">
				<title>Blad.31</title>
				<g id="shadow31-90" v:groupContext="shadow" v:shadowOffsetX="0.345598" v:shadowOffsetY="-1.97279" v:shadowType="1"
						transform="matrix(1,0,0,1,0.345598,1.97279)" class="st1">
					<path d="M39.83 295.05 A5.05439 4.84648 -180 1 0 29.72 295.05 A5.05439 4.84648 -180 1 0 39.83 295.05 ZM40.19
								 301.2 L29.25 301.2 C28.46 301.2 27.74 301.46 27.16 301.89 C26.76 302.19 26.42 302.58 26.19 303.02
								 C25.96 303.46 25.83 303.95 25.83 304.48 L25.83 316.92 L28.83 316.92 L28.83 326.53 L40.5 326.53 L40.5
								 316.92 L43.61 316.92 L43.61 304.48 C43.61 303.72 43.34 303.03 42.89 302.47 C42.58 302.09 42.18 301.77
								 41.72 301.55 C41.26 301.33 40.74 301.2 40.19 301.2 Z" class="st2"/>
					<path d="M39.83 295.05 A5.05439 4.84648 -180 1 0 29.72 295.05 A5.05439 4.84648 -180 1 0 39.83 295.05"
							class="st3"/>
					<path d="M40.19 301.2 L29.25 301.2 C28.46 301.2 27.74 301.46 27.16 301.89 C26.76 302.19 26.42 302.58 26.19 303.02
								 C25.96 303.46 25.83 303.95 25.83 304.48 L25.83 316.92 L28.83 316.92 L28.83 326.53 L40.5 326.53 L40.5
								 316.92 L43.61 316.92 L43.61 304.48 C43.61 303.72 43.34 303.03 42.89 302.47 C42.58 302.09 42.18 301.77
								 41.72 301.55 C41.26 301.33 40.74 301.2 40.19 301.2" class="st3"/>
					<path d="M34.72 326.53 L34.72 318.85" class="st3"/>
					<path d="M28.83 316.92 L28.83 310.29" class="st3"/>
					<path d="M40.5 316.92 L40.5 310.29" class="st3"/>
					<path d="M0 316.92 L25.83 316.92" class="st3"/>
				</g>
				<path d="M39.83 295.05 A5.05439 4.84648 -180 1 0 29.72 295.05 A5.05439 4.84648 -180 1 0 39.83 295.05 ZM40.19 301.2
							 L29.25 301.2 C28.46 301.2 27.74 301.46 27.16 301.89 C26.76 302.19 26.42 302.58 26.19 303.02 C25.96 303.46
							 25.83 303.95 25.83 304.48 L25.83 316.92 L28.83 316.92 L28.83 326.53 L40.5 326.53 L40.5 316.92 L43.61
							 316.92 L43.61 304.48 C43.61 303.72 43.34 303.03 42.89 302.47 C42.58 302.09 42.18 301.77 41.72 301.55
							 C41.26 301.33 40.74 301.2 40.19 301.2 Z" class="st4"/>
				<path d="M39.83 295.05 A5.05439 4.84648 -180 1 0 29.72 295.05 A5.05439 4.84648 -180 1 0 39.83 295.05" class="st5"/>
				<path d="M40.19 301.2 L29.25 301.2 C28.46 301.2 27.74 301.46 27.16 301.89 C26.76 302.19 26.42 302.58 26.19 303.02
							 C25.96 303.46 25.83 303.95 25.83 304.48 L25.83 316.92 L28.83 316.92 L28.83 326.53 L40.5 326.53 L40.5
							 316.92 L43.61 316.92 L43.61 304.48 C43.61 303.72 43.34 303.03 42.89 302.47 C42.58 302.09 42.18 301.77
							 41.72 301.55 C41.26 301.33 40.74 301.2 40.19 301.2" class="st5"/>
				<path d="M34.72 326.53 L34.72 318.85" class="st5"/>
				<path d="M28.83 316.92 L28.83 310.29" class="st5"/>
				<path d="M40.5 316.92 L40.5 310.29" class="st5"/>
				<path d="M0 316.92 L25.83 316.92" class="st5"/>
			</g>
			<g id="shape32-107" v:mID="32" v:groupContext="shape" v:layerMember="0" transform="translate(7.99361E-15,-16.0865)">
				<title>Blad.32</title>
				<g id="shadow32-108" v:groupContext="shadow" v:shadowOffsetX="0.345598" v:shadowOffsetY="-1.97279" v:shadowType="1"
						transform="matrix(1,0,0,1,0.345598,1.97279)" class="st1">
					<path d="M15.42 312.73 A4.51431 4.32778 -180 1 0 6.39 312.73 A4.51431 4.32778 -180 1 0 15.42 312.73 ZM27.68 312.73
								 A4.51431 4.32778 -180 1 0 18.65 312.73 A4.51431 4.32778 -180 1 0 27.68 312.73 ZM39.95 312.73 A4.51431
								 4.32778 -180 1 0 30.92 312.73 A4.51431 4.32778 -180 1 0 39.95 312.73 ZM7.15 323.1 A3.57738 3.42956
								 -180 1 0 0 323.1 A3.57738 3.42956 -180 1 0 7.15 323.1 ZM14.99 323.1 A3.57738 3.42956 -180 1 0 7.84
								 323.1 A3.57738 3.42956 -180 1 0 14.99 323.1 ZM22.83 323.1 A3.57738 3.42956 -180 1 0 15.67 323.1
								 A3.57738 3.42956 -180 1 0 22.83 323.1 ZM30.66 323.1 A3.57738 3.42956 -180 1 0 23.51 323.1 A3.57738
								 3.42956 -180 1 0 30.66 323.1 ZM38.5 323.1 A3.57738 3.42956 -180 1 0 31.34 323.1 A3.57738 3.42956
								 -180 1 0 38.5 323.1 ZM46.34 323.1 A3.57737 3.42956 -180 1 0 39.18 323.1 A3.57737 3.42956 -180 1
								 0 46.34 323.1 Z" class="st2"/>
					<path d="M15.42 312.73 A4.51431 4.32778 -180 1 0 6.39 312.73 A4.51431 4.32778 -180 1 0 15.42 312.73"
							class="st3"/>
					<path d="M27.68 312.73 A4.51431 4.32778 -180 1 0 18.65 312.73 A4.51431 4.32778 -180 1 0 27.68 312.73"
							class="st3"/>
					<path d="M39.95 312.73 A4.51431 4.32778 -180 1 0 30.92 312.73 A4.51431 4.32778 -180 1 0 39.95 312.73"
							class="st3"/>
					<path d="M33.48 308.83 L29.22 302.24" class="st3"/>
					<path d="M23.17 308.4 L23.17 303.99" class="st3"/>
					<path d="M12.85 308.83 L17.12 302.24" class="st3"/>
					<path d="M7.15 323.1 A3.57738 3.42956 -180 1 0 0 323.1 A3.57738 3.42956 -180 1 0 7.15 323.1" class="st3"/>
					<path d="M14.99 323.1 A3.57738 3.42956 -180 1 0 7.84 323.1 A3.57738 3.42956 -180 1 0 14.99 323.1" class="st3"/>
					<path d="M22.83 323.1 A3.57738 3.42956 -180 1 0 15.67 323.1 A3.57738 3.42956 -180 1 0 22.83 323.1" class="st3"/>
					<path d="M30.66 323.1 A3.57738 3.42956 -180 1 0 23.51 323.1 A3.57738 3.42956 -180 1 0 30.66 323.1" class="st3"/>
					<path d="M38.5 323.1 A3.57738 3.42956 -180 1 0 31.34 323.1 A3.57738 3.42956 -180 1 0 38.5 323.1" class="st3"/>
					<path d="M46.34 323.1 A3.57737 3.42956 -180 1 0 39.18 323.1 A3.57737 3.42956 -180 1 0 46.34 323.1" class="st3"/>
					<path d="M37.92 316.34 L40.89 320.17" class="st3"/>
					<path d="M34.98 317.04 L34.92 319.67" class="st3"/>
					<path d="M24.88 316.73 L25.69 319.94" class="st3"/>
					<path d="M8.42 316.34 L5.44 320.17" class="st3"/>
					<path d="M11.35 317.04 L11.41 319.67" class="st3"/>
					<path d="M21.45 316.73 L20.65 319.94" class="st3"/>
				</g>
				<path d="M15.42 312.73 A4.51431 4.32778 -180 1 0 6.39 312.73 A4.51431 4.32778 -180 1 0 15.42 312.73 ZM27.68 312.73
							 A4.51431 4.32778 -180 1 0 18.65 312.73 A4.51431 4.32778 -180 1 0 27.68 312.73 ZM39.95 312.73 A4.51431
							 4.32778 -180 1 0 30.92 312.73 A4.51431 4.32778 -180 1 0 39.95 312.73 ZM7.15 323.1 A3.57738 3.42956 -180
							 1 0 0 323.1 A3.57738 3.42956 -180 1 0 7.15 323.1 ZM14.99 323.1 A3.57738 3.42956 -180 1 0 7.84 323.1
							 A3.57738 3.42956 -180 1 0 14.99 323.1 ZM22.83 323.1 A3.57738 3.42956 -180 1 0 15.67 323.1 A3.57738 3.42956
							 -180 1 0 22.83 323.1 ZM30.66 323.1 A3.57738 3.42956 -180 1 0 23.51 323.1 A3.57738 3.42956 -180 1 0 30.66
							 323.1 ZM38.5 323.1 A3.57738 3.42956 -180 1 0 31.34 323.1 A3.57738 3.42956 -180 1 0 38.5 323.1 ZM46.34
							 323.1 A3.57737 3.42956 -180 1 0 39.18 323.1 A3.57737 3.42956 -180 1 0 46.34 323.1 Z" class="st15"/>
				<path d="M15.42 312.73 A4.51431 4.32778 -180 1 0 6.39 312.73 A4.51431 4.32778 -180 1 0 15.42 312.73" class="st5"/>
				<path d="M27.68 312.73 A4.51431 4.32778 -180 1 0 18.65 312.73 A4.51431 4.32778 -180 1 0 27.68 312.73" class="st5"/>
				<path d="M39.95 312.73 A4.51431 4.32778 -180 1 0 30.92 312.73 A4.51431 4.32778 -180 1 0 39.95 312.73" class="st5"/>
				<path d="M33.48 308.83 L29.22 302.24" class="st5"/>
				<path d="M23.17 308.4 L23.17 303.99" class="st5"/>
				<path d="M12.85 308.83 L17.12 302.24" class="st5"/>
				<path d="M7.15 323.1 A3.57738 3.42956 -180 1 0 0 323.1 A3.57738 3.42956 -180 1 0 7.15 323.1" class="st5"/>
				<path d="M14.99 323.1 A3.57738 3.42956 -180 1 0 7.84 323.1 A3.57738 3.42956 -180 1 0 14.99 323.1" class="st5"/>
				<path d="M22.83 323.1 A3.57738 3.42956 -180 1 0 15.67 323.1 A3.57738 3.42956 -180 1 0 22.83 323.1" class="st5"/>
				<path d="M30.66 323.1 A3.57738 3.42956 -180 1 0 23.51 323.1 A3.57738 3.42956 -180 1 0 30.66 323.1" class="st5"/>
				<path d="M38.5 323.1 A3.57738 3.42956 -180 1 0 31.34 323.1 A3.57738 3.42956 -180 1 0 38.5 323.1" class="st5"/>
				<path d="M46.34 323.1 A3.57737 3.42956 -180 1 0 39.18 323.1 A3.57737 3.42956 -180 1 0 46.34 323.1" class="st5"/>
				<path d="M37.92 316.34 L40.89 320.17" class="st5"/>
				<path d="M34.98 317.04 L34.92 319.67" class="st5"/>
				<path d="M24.88 316.73 L25.69 319.94" class="st5"/>
				<path d="M8.42 316.34 L5.44 320.17" class="st5"/>
				<path d="M11.35 317.04 L11.41 319.67" class="st5"/>
				<path d="M21.45 316.73 L20.65 319.94" class="st5"/>
			</g>
			<g id="shape33-149" v:mID="33" v:groupContext="shape" v:layerMember="0" transform="translate(12.2653,-38.6236)">
				<title>Blad.33</title>
				<g id="shadow33-150" v:groupContext="shadow" v:shadowOffsetX="0.345598" v:shadowOffsetY="-1.97279" v:shadowType="1"
						transform="matrix(1,0,0,1,0.345598,1.97279)" class="st1">
					<ellipse cx="10.9025" cy="316.077" rx="10.9025" ry="10.452" class="st16"/>
				</g>
				<ellipse cx="10.9025" cy="316.077" rx="10.9025" ry="10.452" class="st17"/>
			</g>
			<g id="shape30-154" v:mID="30" v:groupContext="groupContent" v:layerMember="0">
				<v:textBlock v:margins="rect(4,4,4,4)" v:tabSpace="42.5197"/>
				<v:textRect cx="35.4331" cy="336.531" width="83.03" height="20.0036"/>
				<g id="shadow30-155" v:groupContext="shadow" v:shadowOffsetX="0.345598" v:shadowOffsetY="-1.97279" v:shadowType="1"
						transform="matrix(1,0,0,1,0.345598,1.97279)" class="st1"/>
				<text x="-0.95" y="339.53" class="st6" v:langID="1043"><v:paragraph v:horizAlign="1"/><v:tabList/>Technisch overleg</text>			</g>
		</g>
		<g id="group35-157" transform="translate(282.757,-168.054)" v:mID="35" v:groupContext="group" v:layerMember="0">
			<v:userDefs>
				<v:ud v:nameU="visVersion" v:prompt="" v:val="VT0(15):26"/>
				<v:ud v:nameU="ConnGap" v:prompt="" v:val="VT0(0.00012908222537757):24"/>
			</v:userDefs>
			<title>Gebruiker.35</title>
			<g id="shape36-158" v:mID="36" v:groupContext="shape" v:layerMember="0" transform="translate(26.1962,-2.27374E-13)">
				<title>Blad.36</title>
				<g id="shadow36-159" v:groupContext="shadow" v:shadowOffsetX="0.345598" v:shadowOffsetY="-1.97279" v:shadowType="1"
						transform="matrix(1,0,0,1,0.345598,1.97279)" class="st1">
					<path d="M40.8 294.24 A5.17725 4.97112 -180 1 0 30.45 294.24 A5.17725 4.97112 -180 1 0 40.8 294.24 ZM41.17 300.55
								 L29.96 300.55 C29.15 300.55 28.41 300.82 27.82 301.26 C27.41 301.57 27.07 301.96 26.83 302.41 C26.59
								 302.86 26.46 303.37 26.46 303.91 L26.46 316.67 L29.53 316.67 L29.53 326.53 L41.48 326.53 L41.48
								 316.67 L44.67 316.67 L44.67 303.91 C44.67 303.14 44.4 302.42 43.93 301.85 C43.61 301.46 43.2 301.13
								 42.73 300.91 C42.26 300.68 41.73 300.55 41.17 300.55 Z" class="st2"/>
					<path d="M40.8 294.24 A5.17725 4.97112 -180 1 0 30.45 294.24 A5.17725 4.97112 -180 1 0 40.8 294.24" class="st3"/>
					<path d="M41.17 300.55 L29.96 300.55 C29.15 300.55 28.41 300.82 27.82 301.26 C27.41 301.57 27.07 301.96 26.83
								 302.41 C26.59 302.86 26.46 303.37 26.46 303.91 L26.46 316.67 L29.53 316.67 L29.53 326.53 L41.48
								 326.53 L41.48 316.67 L44.67 316.67 L44.67 303.91 C44.67 303.14 44.4 302.42 43.93 301.85 C43.61 301.46
								 43.2 301.13 42.73 300.91 C42.26 300.68 41.73 300.55 41.17 300.55" class="st3"/>
					<path d="M35.57 326.53 L35.57 318.65" class="st3"/>
					<path d="M29.53 316.67 L29.53 309.88" class="st3"/>
					<path d="M41.48 316.67 L41.48 309.88" class="st3"/>
					<path d="M0 316.67 L26.46 316.67" class="st3"/>
				</g>
				<path d="M40.8 294.24 A5.17725 4.97112 -180 1 0 30.45 294.24 A5.17725 4.97112 -180 1 0 40.8 294.24 ZM41.17 300.55
							 L29.96 300.55 C29.15 300.55 28.41 300.82 27.82 301.26 C27.41 301.57 27.07 301.96 26.83 302.41 C26.59
							 302.86 26.46 303.37 26.46 303.91 L26.46 316.67 L29.53 316.67 L29.53 326.53 L41.48 326.53 L41.48 316.67
							 L44.67 316.67 L44.67 303.91 C44.67 303.14 44.4 302.42 43.93 301.85 C43.61 301.46 43.2 301.13 42.73 300.91
							 C42.26 300.68 41.73 300.55 41.17 300.55 Z" class="st4"/>
				<path d="M40.8 294.24 A5.17725 4.97112 -180 1 0 30.45 294.24 A5.17725 4.97112 -180 1 0 40.8 294.24" class="st5"/>
				<path d="M41.17 300.55 L29.96 300.55 C29.15 300.55 28.41 300.82 27.82 301.26 C27.41 301.57 27.07 301.96 26.83 302.41
							 C26.59 302.86 26.46 303.37 26.46 303.91 L26.46 316.67 L29.53 316.67 L29.53 326.53 L41.48 326.53 L41.48
							 316.67 L44.67 316.67 L44.67 303.91 C44.67 303.14 44.4 302.42 43.93 301.85 C43.61 301.46 43.2 301.13
							 42.73 300.91 C42.26 300.68 41.73 300.55 41.17 300.55" class="st5"/>
				<path d="M35.57 326.53 L35.57 318.65" class="st5"/>
				<path d="M29.53 316.67 L29.53 309.88" class="st5"/>
				<path d="M41.48 316.67 L41.48 309.88" class="st5"/>
				<path d="M0 316.67 L26.46 316.67" class="st5"/>
			</g>
			<g id="shape37-176" v:mID="37" v:groupContext="shape" v:layerMember="0" transform="translate(0,-15.8363)">
				<title>Blad.37</title>
				<g id="shadow37-177" v:groupContext="shadow" v:shadowOffsetX="0.345598" v:shadowOffsetY="-1.97279" v:shadowType="1"
						transform="matrix(1,0,0,1,0.345598,1.97279)" class="st1">
					<path d="M41.43 294.41 C41.43 293.69 41.18 293.04 40.75 292.52 C40.46 292.16 40.08 291.87 39.65 291.66 C39.23
								 291.46 38.74 291.34 38.23 291.34 L6.97 291.34 C6.22 291.34 5.53 291.59 4.99 292 C4.62 292.28 4.31
								 292.64 4.1 293.05 C3.88 293.46 3.77 293.92 3.77 294.41 L3.77 314.27 L41.43 314.27 L41.43 294.41
								 ZM41.61 316.7 L3.48 316.7 L0 322.69 L0 326.53 L45.31 326.53 L45.31 322.7 L41.61 316.7 Z"
							class="st7"/>
				</g>
				<path d="M41.43 294.41 C41.43 293.69 41.18 293.04 40.75 292.52 C40.46 292.16 40.08 291.87 39.65 291.66 C39.23 291.46
							 38.74 291.34 38.23 291.34 L6.97 291.34 C6.22 291.34 5.53 291.59 4.99 292 C4.62 292.28 4.31 292.64 4.1
							 293.05 C3.88 293.46 3.77 293.92 3.77 294.41 L3.77 314.27 L41.43 314.27 L41.43 294.41 ZM41.61 316.7 L3.48
							 316.7 L0 322.69 L0 326.53 L45.31 326.53 L45.31 322.7 L41.61 316.7 Z" class="st8"/>
			</g>
			<g id="shape38-181" v:mID="38" v:groupContext="shape" v:layerMember="0" transform="translate(6.27128,-30.5037)">
				<title>Blad.38</title>
				<v:userDefs>
					<v:ud v:nameU="SurroundingRegionColor" v:prompt="" v:val="VT0(1):26"/>
					<v:ud v:nameU="SurroundingRegionColor" v:prompt="" v:val="VT5(#000000)"/>
				</v:userDefs>
				<path d="M32.65 326.53 L32.65 309.08 C32.65 308.96 32.63 308.86 32.57 308.77 C32.51 308.65 32.41 308.56 32.29 308.5
							 C32.19 308.44 32.08 308.42 31.96 308.41 L0.69 308.41 C0.57 308.41 0.46 308.44 0.37 308.49 C0.25 308.56
							 0.15 308.65 0.08 308.76 C0.03 308.86 0 308.96 0 309.08 L0 326.53 L32.65 326.53 Z" class="st12"/>
			</g>
			<g id="shape39-183" v:mID="39" v:groupContext="shape" v:layerMember="0" transform="translate(3.88841,-20.3859)">
				<title>Blad.39</title>
				<v:userDefs>
					<v:ud v:nameU="SurroundingRegionColor" v:prompt="" v:val="VT0(1):26"/>
					<v:ud v:nameU="SurroundingRegionColor" v:prompt="" v:val="VT5(#000000)"/>
				</v:userDefs>
				<path d="M1.89 323.29 L0 326.53 L37.45 326.53 L35.56 323.29 L1.89 323.29 Z" class="st4"/>
			</g>
		</g>
		<g id="shape41-186" v:mID="41" v:groupContext="shape" v:layerMember="1" transform="translate(57.4117,-186.479)">
			<title>Dynamische verbindingslijn.41</title>
			<path d="M0 319.44 L73.73 319.44" class="st10"/>
		</g>
		<g id="shape42-191" v:mID="42" v:groupContext="shape" v:layerMember="1" transform="translate(166.536,-168.045)">
			<title>Dynamische verbindingslijn.42</title>
			<desc>Agenderen</desc>
			<v:textBlock v:margins="rect(4,4,4,4)" v:tabSpace="42.5197"/>
			<v:textRect cx="7.08661" cy="361.953" width="45.55" height="17.6036"/>
			<path d="M7.09 326.53 L7.09 390.34" class="st10"/>
			<rect v:rectContext="textBkgnd" x="-10.7802" y="357.153" width="35.7339" height="9.59985" class="st13"/>
			<text x="-10.78" y="364.35" class="st14" v:langID="1043"><v:paragraph v:horizAlign="1"/><v:tabList/>Agenderen</text>		</g>
		<g id="shape43-198" v:mID="43" v:groupContext="shape" v:layerMember="1" transform="translate(209.065,-67.424)">
			<title>Dynamische verbindingslijn.43</title>
			<desc>Advies</desc>
			<v:textBlock v:margins="rect(4,4,4,4)" v:tabSpace="42.5197"/>
			<v:textRect cx="38.2584" cy="264.875" width="40" height="17.6036"/>
			<path d="M0 326.53 L38.26 326.53 L38.26 200.39 L66.64 200.39" class="st10"/>
			<rect v:rectContext="textBkgnd" x="27.5633" y="260.076" width="21.3904" height="9.59985" class="st13"/>
			<text x="27.56" y="267.28" class="st14" v:langID="1043"><v:paragraph v:horizAlign="1"/><v:tabList/>Advies</text>		</g>
		<g id="group44-205" transform="translate(282.757,-37.6602)" v:mID="44" v:groupContext="group" v:layerMember="0">
			<v:userDefs>
				<v:ud v:nameU="visVersion" v:prompt="" v:val="VT0(15):26"/>
				<v:ud v:nameU="ConnGap" v:prompt="" v:val="VT0(0.00012908222537757):24"/>
			</v:userDefs>
			<title>Executive.44</title>
			<desc>Programmeringstafel</desc>
			<g id="shape45-206" v:mID="45" v:groupContext="shape" v:layerMember="0" transform="translate(27.2562,0)">
				<title>Blad.45</title>
				<g id="shadow45-207" v:groupContext="shadow" v:shadowOffsetX="0.345598" v:shadowOffsetY="-1.97279" v:shadowType="1"
						transform="matrix(1,0,0,1,0.345598,1.97279)" class="st1">
					<path d="M39.83 295.05 A5.05439 4.84648 -180 1 0 29.72 295.05 A5.05439 4.84648 -180 1 0 39.83 295.05 ZM40.19
								 301.2 L29.25 301.2 C28.46 301.2 27.74 301.46 27.16 301.89 C26.76 302.19 26.42 302.58 26.19 303.02
								 C25.96 303.46 25.83 303.95 25.83 304.48 L25.83 316.92 L28.83 316.92 L28.83 326.53 L40.5 326.53 L40.5
								 316.92 L43.61 316.92 L43.61 304.48 C43.61 303.72 43.34 303.03 42.89 302.47 C42.58 302.09 42.18 301.77
								 41.72 301.55 C41.26 301.33 40.74 301.2 40.19 301.2 Z" class="st2"/>
					<path d="M39.83 295.05 A5.05439 4.84648 -180 1 0 29.72 295.05 A5.05439 4.84648 -180 1 0 39.83 295.05"
							class="st3"/>
					<path d="M40.19 301.2 L29.25 301.2 C28.46 301.2 27.74 301.46 27.16 301.89 C26.76 302.19 26.42 302.58 26.19 303.02
								 C25.96 303.46 25.83 303.95 25.83 304.48 L25.83 316.92 L28.83 316.92 L28.83 326.53 L40.5 326.53 L40.5
								 316.92 L43.61 316.92 L43.61 304.48 C43.61 303.72 43.34 303.03 42.89 302.47 C42.58 302.09 42.18 301.77
								 41.72 301.55 C41.26 301.33 40.74 301.2 40.19 301.2" class="st3"/>
					<path d="M34.72 326.53 L34.72 318.85" class="st3"/>
					<path d="M28.83 316.92 L28.83 310.29" class="st3"/>
					<path d="M40.5 316.92 L40.5 310.29" class="st3"/>
					<path d="M0 316.92 L25.83 316.92" class="st3"/>
				</g>
				<path d="M39.83 295.05 A5.05439 4.84648 -180 1 0 29.72 295.05 A5.05439 4.84648 -180 1 0 39.83 295.05 ZM40.19 301.2
							 L29.25 301.2 C28.46 301.2 27.74 301.46 27.16 301.89 C26.76 302.19 26.42 302.58 26.19 303.02 C25.96 303.46
							 25.83 303.95 25.83 304.48 L25.83 316.92 L28.83 316.92 L28.83 326.53 L40.5 326.53 L40.5 316.92 L43.61
							 316.92 L43.61 304.48 C43.61 303.72 43.34 303.03 42.89 302.47 C42.58 302.09 42.18 301.77 41.72 301.55
							 C41.26 301.33 40.74 301.2 40.19 301.2 Z" class="st4"/>
				<path d="M39.83 295.05 A5.05439 4.84648 -180 1 0 29.72 295.05 A5.05439 4.84648 -180 1 0 39.83 295.05" class="st5"/>
				<path d="M40.19 301.2 L29.25 301.2 C28.46 301.2 27.74 301.46 27.16 301.89 C26.76 302.19 26.42 302.58 26.19 303.02
							 C25.96 303.46 25.83 303.95 25.83 304.48 L25.83 316.92 L28.83 316.92 L28.83 326.53 L40.5 326.53 L40.5
							 316.92 L43.61 316.92 L43.61 304.48 C43.61 303.72 43.34 303.03 42.89 302.47 C42.58 302.09 42.18 301.77
							 41.72 301.55 C41.26 301.33 40.74 301.2 40.19 301.2" class="st5"/>
				<path d="M34.72 326.53 L34.72 318.85" class="st5"/>
				<path d="M28.83 316.92 L28.83 310.29" class="st5"/>
				<path d="M40.5 316.92 L40.5 310.29" class="st5"/>
				<path d="M0 316.92 L25.83 316.92" class="st5"/>
			</g>
			<g id="shape46-224" v:mID="46" v:groupContext="shape" v:layerMember="0" transform="translate(7.99361E-15,-16.0865)">
				<title>Blad.46</title>
				<g id="shadow46-225" v:groupContext="shadow" v:shadowOffsetX="0.345598" v:shadowOffsetY="-1.97279" v:shadowType="1"
						transform="matrix(1,0,0,1,0.345598,1.97279)" class="st1">
					<path d="M15.42 312.73 A4.51431 4.32778 -180 1 0 6.39 312.73 A4.51431 4.32778 -180 1 0 15.42 312.73 ZM27.68 312.73
								 A4.51431 4.32778 -180 1 0 18.65 312.73 A4.51431 4.32778 -180 1 0 27.68 312.73 ZM39.95 312.73 A4.51431
								 4.32778 -180 1 0 30.92 312.73 A4.51431 4.32778 -180 1 0 39.95 312.73 ZM7.15 323.1 A3.57738 3.42956
								 -180 1 0 0 323.1 A3.57738 3.42956 -180 1 0 7.15 323.1 ZM14.99 323.1 A3.57738 3.42956 -180 1 0 7.84
								 323.1 A3.57738 3.42956 -180 1 0 14.99 323.1 ZM22.83 323.1 A3.57738 3.42956 -180 1 0 15.67 323.1
								 A3.57738 3.42956 -180 1 0 22.83 323.1 ZM30.66 323.1 A3.57738 3.42956 -180 1 0 23.51 323.1 A3.57738
								 3.42956 -180 1 0 30.66 323.1 ZM38.5 323.1 A3.57738 3.42956 -180 1 0 31.34 323.1 A3.57738 3.42956
								 -180 1 0 38.5 323.1 ZM46.34 323.1 A3.57737 3.42956 -180 1 0 39.18 323.1 A3.57737 3.42956 -180 1
								 0 46.34 323.1 Z" class="st2"/>
					<path d="M15.42 312.73 A4.51431 4.32778 -180 1 0 6.39 312.73 A4.51431 4.32778 -180 1 0 15.42 312.73"
							class="st3"/>
					<path d="M27.68 312.73 A4.51431 4.32778 -180 1 0 18.65 312.73 A4.51431 4.32778 -180 1 0 27.68 312.73"
							class="st3"/>
					<path d="M39.95 312.73 A4.51431 4.32778 -180 1 0 30.92 312.73 A4.51431 4.32778 -180 1 0 39.95 312.73"
							class="st3"/>
					<path d="M33.48 308.83 L29.22 302.24" class="st3"/>
					<path d="M23.17 308.4 L23.17 303.99" class="st3"/>
					<path d="M12.85 308.83 L17.12 302.24" class="st3"/>
					<path d="M7.15 323.1 A3.57738 3.42956 -180 1 0 0 323.1 A3.57738 3.42956 -180 1 0 7.15 323.1" class="st3"/>
					<path d="M14.99 323.1 A3.57738 3.42956 -180 1 0 7.84 323.1 A3.57738 3.42956 -180 1 0 14.99 323.1" class="st3"/>
					<path d="M22.83 323.1 A3.57738 3.42956 -180 1 0 15.67 323.1 A3.57738 3.42956 -180 1 0 22.83 323.1" class="st3"/>
					<path d="M30.66 323.1 A3.57738 3.42956 -180 1 0 23.51 323.1 A3.57738 3.42956 -180 1 0 30.66 323.1" class="st3"/>
					<path d="M38.5 323.1 A3.57738 3.42956 -180 1 0 31.34 323.1 A3.57738 3.42956 -180 1 0 38.5 323.1" class="st3"/>
					<path d="M46.34 323.1 A3.57737 3.42956 -180 1 0 39.18 323.1 A3.57737 3.42956 -180 1 0 46.34 323.1" class="st3"/>
					<path d="M37.92 316.34 L40.89 320.17" class="st3"/>
					<path d="M34.98 317.04 L34.92 319.67" class="st3"/>
					<path d="M24.88 316.73 L25.69 319.94" class="st3"/>
					<path d="M8.42 316.34 L5.44 320.17" class="st3"/>
					<path d="M11.35 317.04 L11.41 319.67" class="st3"/>
					<path d="M21.45 316.73 L20.65 319.94" class="st3"/>
				</g>
				<path d="M15.42 312.73 A4.51431 4.32778 -180 1 0 6.39 312.73 A4.51431 4.32778 -180 1 0 15.42 312.73 ZM27.68 312.73
							 A4.51431 4.32778 -180 1 0 18.65 312.73 A4.51431 4.32778 -180 1 0 27.68 312.73 ZM39.95 312.73 A4.51431
							 4.32778 -180 1 0 30.92 312.73 A4.51431 4.32778 -180 1 0 39.95 312.73 ZM7.15 323.1 A3.57738 3.42956 -180
							 1 0 0 323.1 A3.57738 3.42956 -180 1 0 7.15 323.1 ZM14.99 323.1 A3.57738 3.42956 -180 1 0 7.84 323.1
							 A3.57738 3.42956 -180 1 0 14.99 323.1 ZM22.83 323.1 A3.57738 3.42956 -180 1 0 15.67 323.1 A3.57738 3.42956
							 -180 1 0 22.83 323.1 ZM30.66 323.1 A3.57738 3.42956 -180 1 0 23.51 323.1 A3.57738 3.42956 -180 1 0 30.66
							 323.1 ZM38.5 323.1 A3.57738 3.42956 -180 1 0 31.34 323.1 A3.57738 3.42956 -180 1 0 38.5 323.1 ZM46.34
							 323.1 A3.57737 3.42956 -180 1 0 39.18 323.1 A3.57737 3.42956 -180 1 0 46.34 323.1 Z" class="st15"/>
				<path d="M15.42 312.73 A4.51431 4.32778 -180 1 0 6.39 312.73 A4.51431 4.32778 -180 1 0 15.42 312.73" class="st5"/>
				<path d="M27.68 312.73 A4.51431 4.32778 -180 1 0 18.65 312.73 A4.51431 4.32778 -180 1 0 27.68 312.73" class="st5"/>
				<path d="M39.95 312.73 A4.51431 4.32778 -180 1 0 30.92 312.73 A4.51431 4.32778 -180 1 0 39.95 312.73" class="st5"/>
				<path d="M33.48 308.83 L29.22 302.24" class="st5"/>
				<path d="M23.17 308.4 L23.17 303.99" class="st5"/>
				<path d="M12.85 308.83 L17.12 302.24" class="st5"/>
				<path d="M7.15 323.1 A3.57738 3.42956 -180 1 0 0 323.1 A3.57738 3.42956 -180 1 0 7.15 323.1" class="st5"/>
				<path d="M14.99 323.1 A3.57738 3.42956 -180 1 0 7.84 323.1 A3.57738 3.42956 -180 1 0 14.99 323.1" class="st5"/>
				<path d="M22.83 323.1 A3.57738 3.42956 -180 1 0 15.67 323.1 A3.57738 3.42956 -180 1 0 22.83 323.1" class="st5"/>
				<path d="M30.66 323.1 A3.57738 3.42956 -180 1 0 23.51 323.1 A3.57738 3.42956 -180 1 0 30.66 323.1" class="st5"/>
				<path d="M38.5 323.1 A3.57738 3.42956 -180 1 0 31.34 323.1 A3.57738 3.42956 -180 1 0 38.5 323.1" class="st5"/>
				<path d="M46.34 323.1 A3.57737 3.42956 -180 1 0 39.18 323.1 A3.57737 3.42956 -180 1 0 46.34 323.1" class="st5"/>
				<path d="M37.92 316.34 L40.89 320.17" class="st5"/>
				<path d="M34.98 317.04 L34.92 319.67" class="st5"/>
				<path d="M24.88 316.73 L25.69 319.94" class="st5"/>
				<path d="M8.42 316.34 L5.44 320.17" class="st5"/>
				<path d="M11.35 317.04 L11.41 319.67" class="st5"/>
				<path d="M21.45 316.73 L20.65 319.94" class="st5"/>
			</g>
			<g id="shape47-266" v:mID="47" v:groupContext="shape" v:layerMember="0" transform="translate(12.2653,-38.6236)">
				<title>Blad.47</title>
				<g id="shadow47-267" v:groupContext="shadow" v:shadowOffsetX="0.345598" v:shadowOffsetY="-1.97279" v:shadowType="1"
						transform="matrix(1,0,0,1,0.345598,1.97279)" class="st1">
					<ellipse cx="10.9025" cy="316.077" rx="10.9025" ry="10.452" class="st16"/>
				</g>
				<ellipse cx="10.9025" cy="316.077" rx="10.9025" ry="10.452" class="st17"/>
			</g>
			<g id="shape44-271" v:mID="44" v:groupContext="groupContent" v:layerMember="0">
				<v:textBlock v:margins="rect(4,4,4,4)" v:tabSpace="42.5197"/>
				<v:textRect cx="35.4331" cy="336.531" width="96.25" height="20.0036"/>
				<g id="shadow44-272" v:groupContext="shadow" v:shadowOffsetX="0.345598" v:shadowOffsetY="-1.97279" v:shadowType="1"
						transform="matrix(1,0,0,1,0.345598,1.97279)" class="st1"/>
				<text x="-7.56" y="339.53" class="st6" v:langID="1043"><v:paragraph v:horizAlign="1"/><v:tabList/>Programmeringstafel</text>			</g>
		</g>
		<g id="shape48-274" v:mID="48" v:groupContext="shape" v:layerMember="1" transform="translate(209.065,-193.566)">
			<title>Dynamische verbindingslijn.48</title>
			<desc>Voorstel zonder technische impact</desc>
			<v:textBlock v:margins="rect(4,4,4,4)" v:tabSpace="42.5197"/>
			<v:textRect cx="41.8017" cy="276.699" width="68.93" height="27.2035"/>
			<path d="M0 326.53 L18.42 326.53 L18.42 276.7 L109.12 276.7 L109.12 293.97" class="st10"/>
			<rect v:rectContext="textBkgnd" x="12.2459" y="267.099" width="59.1119" height="19.1997" class="st18"/>
			<text x="15.92" y="274.3" class="st14" v:langID="1043"><v:paragraph v:horizAlign="1"/><v:tabList/>Voorstel zonder <v:newlineChar/><tspan
						x="12.25" dy="1.2em" class="st9">technische impact</tspan></text>		</g>
		<g id="shape50-282" v:mID="50" v:groupContext="shape" v:layerMember="1" transform="translate(311.103,-168.045)">
			<title>Dynamische verbindingslijn.50</title>
			<desc>Agenderen</desc>
			<v:textBlock v:margins="rect(4,4,4,4)" v:tabSpace="42.5197"/>
			<v:textRect cx="7.08661" cy="361.953" width="45.55" height="17.6036"/>
			<path d="M7.09 326.53 L7.09 390.34" class="st10"/>
			<rect v:rectContext="textBkgnd" x="-10.7802" y="357.153" width="35.7339" height="9.59985" class="st18"/>
			<text x="-10.78" y="364.35" class="st14" v:langID="1043"><v:paragraph v:horizAlign="1"/><v:tabList/>Agenderen</text>		</g>
		<g id="group51-289" transform="translate(417.402,-168.054)" v:mID="51" v:groupContext="group" v:layerMember="0">
			<v:userDefs>
				<v:ud v:nameU="visVersion" v:prompt="" v:val="VT0(15):26"/>
				<v:ud v:nameU="ConnGap" v:prompt="" v:val="VT0(0.00012908222537757):24"/>
			</v:userDefs>
			<title>Gebruiker.51</title>
			<g id="shape52-290" v:mID="52" v:groupContext="shape" v:layerMember="0" transform="translate(26.1962,-2.27374E-13)">
				<title>Blad.52</title>
				<g id="shadow52-291" v:groupContext="shadow" v:shadowOffsetX="0.345598" v:shadowOffsetY="-1.97279" v:shadowType="1"
						transform="matrix(1,0,0,1,0.345598,1.97279)" class="st1">
					<path d="M40.8 294.24 A5.17725 4.97112 -180 1 0 30.45 294.24 A5.17725 4.97112 -180 1 0 40.8 294.24 ZM41.17 300.55
								 L29.96 300.55 C29.15 300.55 28.41 300.82 27.82 301.26 C27.41 301.57 27.07 301.96 26.83 302.41 C26.59
								 302.86 26.46 303.37 26.46 303.91 L26.46 316.67 L29.53 316.67 L29.53 326.53 L41.48 326.53 L41.48
								 316.67 L44.67 316.67 L44.67 303.91 C44.67 303.14 44.4 302.42 43.93 301.85 C43.61 301.46 43.2 301.13
								 42.73 300.91 C42.26 300.68 41.73 300.55 41.17 300.55 Z" class="st2"/>
					<path d="M40.8 294.24 A5.17725 4.97112 -180 1 0 30.45 294.24 A5.17725 4.97112 -180 1 0 40.8 294.24" class="st3"/>
					<path d="M41.17 300.55 L29.96 300.55 C29.15 300.55 28.41 300.82 27.82 301.26 C27.41 301.57 27.07 301.96 26.83
								 302.41 C26.59 302.86 26.46 303.37 26.46 303.91 L26.46 316.67 L29.53 316.67 L29.53 326.53 L41.48
								 326.53 L41.48 316.67 L44.67 316.67 L44.67 303.91 C44.67 303.14 44.4 302.42 43.93 301.85 C43.61 301.46
								 43.2 301.13 42.73 300.91 C42.26 300.68 41.73 300.55 41.17 300.55" class="st3"/>
					<path d="M35.57 326.53 L35.57 318.65" class="st3"/>
					<path d="M29.53 316.67 L29.53 309.88" class="st3"/>
					<path d="M41.48 316.67 L41.48 309.88" class="st3"/>
					<path d="M0 316.67 L26.46 316.67" class="st3"/>
				</g>
				<path d="M40.8 294.24 A5.17725 4.97112 -180 1 0 30.45 294.24 A5.17725 4.97112 -180 1 0 40.8 294.24 ZM41.17 300.55
							 L29.96 300.55 C29.15 300.55 28.41 300.82 27.82 301.26 C27.41 301.57 27.07 301.96 26.83 302.41 C26.59
							 302.86 26.46 303.37 26.46 303.91 L26.46 316.67 L29.53 316.67 L29.53 326.53 L41.48 326.53 L41.48 316.67
							 L44.67 316.67 L44.67 303.91 C44.67 303.14 44.4 302.42 43.93 301.85 C43.61 301.46 43.2 301.13 42.73 300.91
							 C42.26 300.68 41.73 300.55 41.17 300.55 Z" class="st4"/>
				<path d="M40.8 294.24 A5.17725 4.97112 -180 1 0 30.45 294.24 A5.17725 4.97112 -180 1 0 40.8 294.24" class="st5"/>
				<path d="M41.17 300.55 L29.96 300.55 C29.15 300.55 28.41 300.82 27.82 301.26 C27.41 301.57 27.07 301.96 26.83 302.41
							 C26.59 302.86 26.46 303.37 26.46 303.91 L26.46 316.67 L29.53 316.67 L29.53 326.53 L41.48 326.53 L41.48
							 316.67 L44.67 316.67 L44.67 303.91 C44.67 303.14 44.4 302.42 43.93 301.85 C43.61 301.46 43.2 301.13
							 42.73 300.91 C42.26 300.68 41.73 300.55 41.17 300.55" class="st5"/>
				<path d="M35.57 326.53 L35.57 318.65" class="st5"/>
				<path d="M29.53 316.67 L29.53 309.88" class="st5"/>
				<path d="M41.48 316.67 L41.48 309.88" class="st5"/>
				<path d="M0 316.67 L26.46 316.67" class="st5"/>
			</g>
			<g id="shape53-308" v:mID="53" v:groupContext="shape" v:layerMember="0" transform="translate(0,-15.8363)">
				<title>Blad.53</title>
				<g id="shadow53-309" v:groupContext="shadow" v:shadowOffsetX="0.345598" v:shadowOffsetY="-1.97279" v:shadowType="1"
						transform="matrix(1,0,0,1,0.345598,1.97279)" class="st1">
					<path d="M41.43 294.41 C41.43 293.69 41.18 293.04 40.75 292.52 C40.46 292.16 40.08 291.87 39.65 291.66 C39.23
								 291.46 38.74 291.34 38.23 291.34 L6.97 291.34 C6.22 291.34 5.53 291.59 4.99 292 C4.62 292.28 4.31
								 292.64 4.1 293.05 C3.88 293.46 3.77 293.92 3.77 294.41 L3.77 314.27 L41.43 314.27 L41.43 294.41
								 ZM41.61 316.7 L3.48 316.7 L0 322.69 L0 326.53 L45.31 326.53 L45.31 322.7 L41.61 316.7 Z"
							class="st7"/>
				</g>
				<path d="M41.43 294.41 C41.43 293.69 41.18 293.04 40.75 292.52 C40.46 292.16 40.08 291.87 39.65 291.66 C39.23 291.46
							 38.74 291.34 38.23 291.34 L6.97 291.34 C6.22 291.34 5.53 291.59 4.99 292 C4.62 292.28 4.31 292.64 4.1
							 293.05 C3.88 293.46 3.77 293.92 3.77 294.41 L3.77 314.27 L41.43 314.27 L41.43 294.41 ZM41.61 316.7 L3.48
							 316.7 L0 322.69 L0 326.53 L45.31 326.53 L45.31 322.7 L41.61 316.7 Z" class="st8"/>
			</g>
			<g id="shape54-313" v:mID="54" v:groupContext="shape" v:layerMember="0" transform="translate(6.27128,-30.5037)">
				<title>Blad.54</title>
				<v:userDefs>
					<v:ud v:nameU="SurroundingRegionColor" v:prompt="" v:val="VT0(1):26"/>
					<v:ud v:nameU="SurroundingRegionColor" v:prompt="" v:val="VT5(#000000)"/>
				</v:userDefs>
				<path d="M32.65 326.53 L32.65 309.08 C32.65 308.96 32.63 308.86 32.57 308.77 C32.51 308.65 32.41 308.56 32.29 308.5
							 C32.19 308.44 32.08 308.42 31.96 308.41 L0.69 308.41 C0.57 308.41 0.46 308.44 0.37 308.49 C0.25 308.56
							 0.15 308.65 0.08 308.76 C0.03 308.86 0 308.96 0 309.08 L0 326.53 L32.65 326.53 Z" class="st12"/>
			</g>
			<g id="shape55-315" v:mID="55" v:groupContext="shape" v:layerMember="0" transform="translate(3.88841,-20.3859)">
				<title>Blad.55</title>
				<v:userDefs>
					<v:ud v:nameU="SurroundingRegionColor" v:prompt="" v:val="VT0(1):26"/>
					<v:ud v:nameU="SurroundingRegionColor" v:prompt="" v:val="VT5(#000000)"/>
				</v:userDefs>
				<path d="M1.89 323.29 L0 326.53 L37.45 326.53 L35.56 323.29 L1.89 323.29 Z" class="st4"/>
			</g>
		</g>
		<g id="shape56-318" v:mID="56" v:groupContext="shape" v:layerMember="1" transform="translate(353.632,-67.424)">
			<title>Dynamische verbindingslijn.56</title>
			<desc>Advies</desc>
			<v:textBlock v:margins="rect(4,4,4,4)" v:tabSpace="42.5197"/>
			<v:textRect cx="34.6778" cy="266.255" width="40" height="17.6036"/>
			<path d="M0 326.53 L34.68 326.53 L34.68 200.39 L56.72 200.39" class="st10"/>
			<rect v:rectContext="textBkgnd" x="23.9827" y="261.456" width="21.3904" height="9.59985" class="st18"/>
			<text x="23.98" y="268.66" class="st14" v:langID="1043"><v:paragraph v:horizAlign="1"/><v:tabList/>Advies</text>		</g>
		<g id="shape57-325" v:mID="57" v:groupContext="shape" v:layerMember="1" transform="translate(353.632,-193.566)">
			<title>Dynamische verbindingslijn.57</title>
			<desc>Technisch voorstel</desc>
			<v:textBlock v:margins="rect(4,4,4,4)" v:tabSpace="42.5197"/>
			<v:textRect cx="36.8411" cy="277.296" width="43.84" height="27.2035"/>
			<path d="M0 326.53 L21.26 326.53 L21.26 277.3 L99.2 277.3 L99.2 293.97" class="st10"/>
			<rect v:rectContext="textBkgnd" x="20.732" y="267.696" width="32.2182" height="19.1997" class="st13"/>
			<text x="20.73" y="274.9" class="st14" v:langID="1043"><v:paragraph v:horizAlign="1"/><v:tabList/>Technisch <v:newlineChar/><tspan
						x="23.61" dy="1.2em" class="st9">voorstel</tspan></text>		</g>
		<g id="group58-333" transform="translate(417.402,-37.6602)" v:mID="58" v:groupContext="group" v:layerMember="0">
			<v:userDefs>
				<v:ud v:nameU="visVersion" v:prompt="" v:val="VT0(15):26"/>
				<v:ud v:nameU="ConnGap" v:prompt="" v:val="VT0(0.00012908222537757):24"/>
			</v:userDefs>
			<title>Executive.58</title>
			<desc>OBDO of Programmeringstafel GDI</desc>
			<g id="shape59-334" v:mID="59" v:groupContext="shape" v:layerMember="0" transform="translate(27.2562,0)">
				<title>Blad.59</title>
				<g id="shadow59-335" v:groupContext="shadow" v:shadowOffsetX="0.345598" v:shadowOffsetY="-1.97279" v:shadowType="1"
						transform="matrix(1,0,0,1,0.345598,1.97279)" class="st1">
					<path d="M39.83 295.05 A5.05439 4.84648 -180 1 0 29.72 295.05 A5.05439 4.84648 -180 1 0 39.83 295.05 ZM40.19
								 301.2 L29.25 301.2 C28.46 301.2 27.74 301.46 27.16 301.89 C26.76 302.19 26.42 302.58 26.19 303.02
								 C25.96 303.46 25.83 303.95 25.83 304.48 L25.83 316.92 L28.83 316.92 L28.83 326.53 L40.5 326.53 L40.5
								 316.92 L43.61 316.92 L43.61 304.48 C43.61 303.72 43.34 303.03 42.89 302.47 C42.58 302.09 42.18 301.77
								 41.72 301.55 C41.26 301.33 40.74 301.2 40.19 301.2 Z" class="st2"/>
					<path d="M39.83 295.05 A5.05439 4.84648 -180 1 0 29.72 295.05 A5.05439 4.84648 -180 1 0 39.83 295.05"
							class="st3"/>
					<path d="M40.19 301.2 L29.25 301.2 C28.46 301.2 27.74 301.46 27.16 301.89 C26.76 302.19 26.42 302.58 26.19 303.02
								 C25.96 303.46 25.83 303.95 25.83 304.48 L25.83 316.92 L28.83 316.92 L28.83 326.53 L40.5 326.53 L40.5
								 316.92 L43.61 316.92 L43.61 304.48 C43.61 303.72 43.34 303.03 42.89 302.47 C42.58 302.09 42.18 301.77
								 41.72 301.55 C41.26 301.33 40.74 301.2 40.19 301.2" class="st3"/>
					<path d="M34.72 326.53 L34.72 318.85" class="st3"/>
					<path d="M28.83 316.92 L28.83 310.29" class="st3"/>
					<path d="M40.5 316.92 L40.5 310.29" class="st3"/>
					<path d="M0 316.92 L25.83 316.92" class="st3"/>
				</g>
				<path d="M39.83 295.05 A5.05439 4.84648 -180 1 0 29.72 295.05 A5.05439 4.84648 -180 1 0 39.83 295.05 ZM40.19 301.2
							 L29.25 301.2 C28.46 301.2 27.74 301.46 27.16 301.89 C26.76 302.19 26.42 302.58 26.19 303.02 C25.96 303.46
							 25.83 303.95 25.83 304.48 L25.83 316.92 L28.83 316.92 L28.83 326.53 L40.5 326.53 L40.5 316.92 L43.61
							 316.92 L43.61 304.48 C43.61 303.72 43.34 303.03 42.89 302.47 C42.58 302.09 42.18 301.77 41.72 301.55
							 C41.26 301.33 40.74 301.2 40.19 301.2 Z" class="st4"/>
				<path d="M39.83 295.05 A5.05439 4.84648 -180 1 0 29.72 295.05 A5.05439 4.84648 -180 1 0 39.83 295.05" class="st5"/>
				<path d="M40.19 301.2 L29.25 301.2 C28.46 301.2 27.74 301.46 27.16 301.89 C26.76 302.19 26.42 302.58 26.19 303.02
							 C25.96 303.46 25.83 303.95 25.83 304.48 L25.83 316.92 L28.83 316.92 L28.83 326.53 L40.5 326.53 L40.5
							 316.92 L43.61 316.92 L43.61 304.48 C43.61 303.72 43.34 303.03 42.89 302.47 C42.58 302.09 42.18 301.77
							 41.72 301.55 C41.26 301.33 40.74 301.2 40.19 301.2" class="st5"/>
				<path d="M34.72 326.53 L34.72 318.85" class="st5"/>
				<path d="M28.83 316.92 L28.83 310.29" class="st5"/>
				<path d="M40.5 316.92 L40.5 310.29" class="st5"/>
				<path d="M0 316.92 L25.83 316.92" class="st5"/>
			</g>
			<g id="shape60-352" v:mID="60" v:groupContext="shape" v:layerMember="0" transform="translate(7.99361E-15,-16.0865)">
				<title>Blad.60</title>
				<g id="shadow60-353" v:groupContext="shadow" v:shadowOffsetX="0.345598" v:shadowOffsetY="-1.97279" v:shadowType="1"
						transform="matrix(1,0,0,1,0.345598,1.97279)" class="st1">
					<path d="M15.42 312.73 A4.51431 4.32778 -180 1 0 6.39 312.73 A4.51431 4.32778 -180 1 0 15.42 312.73 ZM27.68 312.73
								 A4.51431 4.32778 -180 1 0 18.65 312.73 A4.51431 4.32778 -180 1 0 27.68 312.73 ZM39.95 312.73 A4.51431
								 4.32778 -180 1 0 30.92 312.73 A4.51431 4.32778 -180 1 0 39.95 312.73 ZM7.15 323.1 A3.57738 3.42956
								 -180 1 0 0 323.1 A3.57738 3.42956 -180 1 0 7.15 323.1 ZM14.99 323.1 A3.57738 3.42956 -180 1 0 7.84
								 323.1 A3.57738 3.42956 -180 1 0 14.99 323.1 ZM22.83 323.1 A3.57738 3.42956 -180 1 0 15.67 323.1
								 A3.57738 3.42956 -180 1 0 22.83 323.1 ZM30.66 323.1 A3.57738 3.42956 -180 1 0 23.51 323.1 A3.57738
								 3.42956 -180 1 0 30.66 323.1 ZM38.5 323.1 A3.57738 3.42956 -180 1 0 31.34 323.1 A3.57738 3.42956
								 -180 1 0 38.5 323.1 ZM46.34 323.1 A3.57737 3.42956 -180 1 0 39.18 323.1 A3.57737 3.42956 -180 1
								 0 46.34 323.1 Z" class="st2"/>
					<path d="M15.42 312.73 A4.51431 4.32778 -180 1 0 6.39 312.73 A4.51431 4.32778 -180 1 0 15.42 312.73"
							class="st3"/>
					<path d="M27.68 312.73 A4.51431 4.32778 -180 1 0 18.65 312.73 A4.51431 4.32778 -180 1 0 27.68 312.73"
							class="st3"/>
					<path d="M39.95 312.73 A4.51431 4.32778 -180 1 0 30.92 312.73 A4.51431 4.32778 -180 1 0 39.95 312.73"
							class="st3"/>
					<path d="M33.48 308.83 L29.22 302.24" class="st3"/>
					<path d="M23.17 308.4 L23.17 303.99" class="st3"/>
					<path d="M12.85 308.83 L17.12 302.24" class="st3"/>
					<path d="M7.15 323.1 A3.57738 3.42956 -180 1 0 0 323.1 A3.57738 3.42956 -180 1 0 7.15 323.1" class="st3"/>
					<path d="M14.99 323.1 A3.57738 3.42956 -180 1 0 7.84 323.1 A3.57738 3.42956 -180 1 0 14.99 323.1" class="st3"/>
					<path d="M22.83 323.1 A3.57738 3.42956 -180 1 0 15.67 323.1 A3.57738 3.42956 -180 1 0 22.83 323.1" class="st3"/>
					<path d="M30.66 323.1 A3.57738 3.42956 -180 1 0 23.51 323.1 A3.57738 3.42956 -180 1 0 30.66 323.1" class="st3"/>
					<path d="M38.5 323.1 A3.57738 3.42956 -180 1 0 31.34 323.1 A3.57738 3.42956 -180 1 0 38.5 323.1" class="st3"/>
					<path d="M46.34 323.1 A3.57737 3.42956 -180 1 0 39.18 323.1 A3.57737 3.42956 -180 1 0 46.34 323.1" class="st3"/>
					<path d="M37.92 316.34 L40.89 320.17" class="st3"/>
					<path d="M34.98 317.04 L34.92 319.67" class="st3"/>
					<path d="M24.88 316.73 L25.69 319.94" class="st3"/>
					<path d="M8.42 316.34 L5.44 320.17" class="st3"/>
					<path d="M11.35 317.04 L11.41 319.67" class="st3"/>
					<path d="M21.45 316.73 L20.65 319.94" class="st3"/>
				</g>
				<path d="M15.42 312.73 A4.51431 4.32778 -180 1 0 6.39 312.73 A4.51431 4.32778 -180 1 0 15.42 312.73 ZM27.68 312.73
							 A4.51431 4.32778 -180 1 0 18.65 312.73 A4.51431 4.32778 -180 1 0 27.68 312.73 ZM39.95 312.73 A4.51431
							 4.32778 -180 1 0 30.92 312.73 A4.51431 4.32778 -180 1 0 39.95 312.73 ZM7.15 323.1 A3.57738 3.42956 -180
							 1 0 0 323.1 A3.57738 3.42956 -180 1 0 7.15 323.1 ZM14.99 323.1 A3.57738 3.42956 -180 1 0 7.84 323.1
							 A3.57738 3.42956 -180 1 0 14.99 323.1 ZM22.83 323.1 A3.57738 3.42956 -180 1 0 15.67 323.1 A3.57738 3.42956
							 -180 1 0 22.83 323.1 ZM30.66 323.1 A3.57738 3.42956 -180 1 0 23.51 323.1 A3.57738 3.42956 -180 1 0 30.66
							 323.1 ZM38.5 323.1 A3.57738 3.42956 -180 1 0 31.34 323.1 A3.57738 3.42956 -180 1 0 38.5 323.1 ZM46.34
							 323.1 A3.57737 3.42956 -180 1 0 39.18 323.1 A3.57737 3.42956 -180 1 0 46.34 323.1 Z" class="st15"/>
				<path d="M15.42 312.73 A4.51431 4.32778 -180 1 0 6.39 312.73 A4.51431 4.32778 -180 1 0 15.42 312.73" class="st5"/>
				<path d="M27.68 312.73 A4.51431 4.32778 -180 1 0 18.65 312.73 A4.51431 4.32778 -180 1 0 27.68 312.73" class="st5"/>
				<path d="M39.95 312.73 A4.51431 4.32778 -180 1 0 30.92 312.73 A4.51431 4.32778 -180 1 0 39.95 312.73" class="st5"/>
				<path d="M33.48 308.83 L29.22 302.24" class="st5"/>
				<path d="M23.17 308.4 L23.17 303.99" class="st5"/>
				<path d="M12.85 308.83 L17.12 302.24" class="st5"/>
				<path d="M7.15 323.1 A3.57738 3.42956 -180 1 0 0 323.1 A3.57738 3.42956 -180 1 0 7.15 323.1" class="st5"/>
				<path d="M14.99 323.1 A3.57738 3.42956 -180 1 0 7.84 323.1 A3.57738 3.42956 -180 1 0 14.99 323.1" class="st5"/>
				<path d="M22.83 323.1 A3.57738 3.42956 -180 1 0 15.67 323.1 A3.57738 3.42956 -180 1 0 22.83 323.1" class="st5"/>
				<path d="M30.66 323.1 A3.57738 3.42956 -180 1 0 23.51 323.1 A3.57738 3.42956 -180 1 0 30.66 323.1" class="st5"/>
				<path d="M38.5 323.1 A3.57738 3.42956 -180 1 0 31.34 323.1 A3.57738 3.42956 -180 1 0 38.5 323.1" class="st5"/>
				<path d="M46.34 323.1 A3.57737 3.42956 -180 1 0 39.18 323.1 A3.57737 3.42956 -180 1 0 46.34 323.1" class="st5"/>
				<path d="M37.92 316.34 L40.89 320.17" class="st5"/>
				<path d="M34.98 317.04 L34.92 319.67" class="st5"/>
				<path d="M24.88 316.73 L25.69 319.94" class="st5"/>
				<path d="M8.42 316.34 L5.44 320.17" class="st5"/>
				<path d="M11.35 317.04 L11.41 319.67" class="st5"/>
				<path d="M21.45 316.73 L20.65 319.94" class="st5"/>
			</g>
			<g id="shape61-394" v:mID="61" v:groupContext="shape" v:layerMember="0" transform="translate(12.2653,-38.6236)">
				<title>Blad.61</title>
				<g id="shadow61-395" v:groupContext="shadow" v:shadowOffsetX="0.345598" v:shadowOffsetY="-1.97279" v:shadowType="1"
						transform="matrix(1,0,0,1,0.345598,1.97279)" class="st1">
					<ellipse cx="10.9025" cy="316.077" rx="10.9025" ry="10.452" class="st16"/>
				</g>
				<ellipse cx="10.9025" cy="316.077" rx="10.9025" ry="10.452" class="st17"/>
			</g>
			<g id="shape58-399" v:mID="58" v:groupContext="groupContent" v:layerMember="0">
				<v:textBlock v:margins="rect(4,4,4,4)" v:tabSpace="42.5197"/>
				<v:textRect cx="35.4331" cy="342.531" width="113.49" height="32.0037"/>
				<g id="shadow58-400" v:groupContext="shadow" v:shadowOffsetX="0.345598" v:shadowOffsetY="-1.97279" v:shadowType="1"
						transform="matrix(1,0,0,1,0.345598,1.97279)" class="st1"/>
				<text x="17.72" y="339.53" class="st6" v:langID="1043"><v:paragraph v:horizAlign="1"/><v:tabList/>OBDO of<v:newlineChar/><tspan
							x="-16.18" dy="1.2em" class="st9">Programmeringstafel GDI</tspan></text>			</g>
		</g>
		<g id="shape62-403" v:mID="62" v:groupContext="shape" v:layerMember="1" transform="translate(445.749,-168.045)">
			<title>Dynamische verbindingslijn.62</title>
			<desc>Agenderen voor besluitvorming</desc>
			<v:textBlock v:margins="rect(4,4,4,4)" v:tabSpace="42.5197"/>
			<v:textRect cx="7.08661" cy="361.953" width="75.15" height="27.2035"/>
			<path d="M7.09 326.53 L7.09 390.34" class="st10"/>
			<rect v:rectContext="textBkgnd" x="-25.5791" y="352.353" width="65.3316" height="19.1997" class="st13"/>
			<text x="-10.78" y="359.55" class="st14" v:langID="1043"><v:paragraph v:horizAlign="1"/><v:tabList/>Agenderen<v:newlineChar/><tspan
						x="-25.58" dy="1.2em" class="st9">voor besluitvorming</tspan></text>		</g>
		<g id="shape63-411" v:mID="63" v:groupContext="shape" v:layerMember="1" transform="translate(318.19,-219.087)">
			<title>Dynamische verbindingslijn.63</title>
			<path d="M0 326.53 L0 243.62 L-268.02 243.62" class="st19"/>
		</g>
		<g id="group65-416" transform="translate(516.615,-168.054)" v:mID="65" v:groupContext="group" v:layerMember="0">
			<v:userDefs>
				<v:ud v:nameU="visVersion" v:prompt="" v:val="VT0(15):26"/>
				<v:ud v:nameU="ConnGap" v:prompt="" v:val="VT0(0.00012908222537757):24"/>
			</v:userDefs>
			<title>Gebruiker.65</title>
			<desc>Doorvoeren door beheerorganisatie</desc>
			<g id="shape66-417" v:mID="66" v:groupContext="shape" v:layerMember="0" transform="translate(26.1962,-2.27374E-13)">
				<title>Blad.66</title>
				<g id="shadow66-418" v:groupContext="shadow" v:shadowOffsetX="0.345598" v:shadowOffsetY="-1.97279" v:shadowType="1"
						transform="matrix(1,0,0,1,0.345598,1.97279)" class="st1">
					<path d="M40.8 294.24 A5.17725 4.97112 -180 1 0 30.45 294.24 A5.17725 4.97112 -180 1 0 40.8 294.24 ZM41.17 300.55
								 L29.96 300.55 C29.15 300.55 28.41 300.82 27.82 301.26 C27.41 301.57 27.07 301.96 26.83 302.41 C26.59
								 302.86 26.46 303.37 26.46 303.91 L26.46 316.67 L29.53 316.67 L29.53 326.53 L41.48 326.53 L41.48
								 316.67 L44.67 316.67 L44.67 303.91 C44.67 303.14 44.4 302.42 43.93 301.85 C43.61 301.46 43.2 301.13
								 42.73 300.91 C42.26 300.68 41.73 300.55 41.17 300.55 Z" class="st2"/>
					<path d="M40.8 294.24 A5.17725 4.97112 -180 1 0 30.45 294.24 A5.17725 4.97112 -180 1 0 40.8 294.24" class="st3"/>
					<path d="M41.17 300.55 L29.96 300.55 C29.15 300.55 28.41 300.82 27.82 301.26 C27.41 301.57 27.07 301.96 26.83
								 302.41 C26.59 302.86 26.46 303.37 26.46 303.91 L26.46 316.67 L29.53 316.67 L29.53 326.53 L41.48
								 326.53 L41.48 316.67 L44.67 316.67 L44.67 303.91 C44.67 303.14 44.4 302.42 43.93 301.85 C43.61 301.46
								 43.2 301.13 42.73 300.91 C42.26 300.68 41.73 300.55 41.17 300.55" class="st3"/>
					<path d="M35.57 326.53 L35.57 318.65" class="st3"/>
					<path d="M29.53 316.67 L29.53 309.88" class="st3"/>
					<path d="M41.48 316.67 L41.48 309.88" class="st3"/>
					<path d="M0 316.67 L26.46 316.67" class="st3"/>
				</g>
				<path d="M40.8 294.24 A5.17725 4.97112 -180 1 0 30.45 294.24 A5.17725 4.97112 -180 1 0 40.8 294.24 ZM41.17 300.55
							 L29.96 300.55 C29.15 300.55 28.41 300.82 27.82 301.26 C27.41 301.57 27.07 301.96 26.83 302.41 C26.59
							 302.86 26.46 303.37 26.46 303.91 L26.46 316.67 L29.53 316.67 L29.53 326.53 L41.48 326.53 L41.48 316.67
							 L44.67 316.67 L44.67 303.91 C44.67 303.14 44.4 302.42 43.93 301.85 C43.61 301.46 43.2 301.13 42.73 300.91
							 C42.26 300.68 41.73 300.55 41.17 300.55 Z" class="st4"/>
				<path d="M40.8 294.24 A5.17725 4.97112 -180 1 0 30.45 294.24 A5.17725 4.97112 -180 1 0 40.8 294.24" class="st5"/>
				<path d="M41.17 300.55 L29.96 300.55 C29.15 300.55 28.41 300.82 27.82 301.26 C27.41 301.57 27.07 301.96 26.83 302.41
							 C26.59 302.86 26.46 303.37 26.46 303.91 L26.46 316.67 L29.53 316.67 L29.53 326.53 L41.48 326.53 L41.48
							 316.67 L44.67 316.67 L44.67 303.91 C44.67 303.14 44.4 302.42 43.93 301.85 C43.61 301.46 43.2 301.13
							 42.73 300.91 C42.26 300.68 41.73 300.55 41.17 300.55" class="st5"/>
				<path d="M35.57 326.53 L35.57 318.65" class="st5"/>
				<path d="M29.53 316.67 L29.53 309.88" class="st5"/>
				<path d="M41.48 316.67 L41.48 309.88" class="st5"/>
				<path d="M0 316.67 L26.46 316.67" class="st5"/>
			</g>
			<g id="shape67-435" v:mID="67" v:groupContext="shape" v:layerMember="0" transform="translate(0,-15.8363)">
				<title>Blad.67</title>
				<g id="shadow67-436" v:groupContext="shadow" v:shadowOffsetX="0.345598" v:shadowOffsetY="-1.97279" v:shadowType="1"
						transform="matrix(1,0,0,1,0.345598,1.97279)" class="st1">
					<path d="M41.43 294.41 C41.43 293.69 41.18 293.04 40.75 292.52 C40.46 292.16 40.08 291.87 39.65 291.66 C39.23
								 291.46 38.74 291.34 38.23 291.34 L6.97 291.34 C6.22 291.34 5.53 291.59 4.99 292 C4.62 292.28 4.31
								 292.64 4.1 293.05 C3.88 293.46 3.77 293.92 3.77 294.41 L3.77 314.27 L41.43 314.27 L41.43 294.41
								 ZM41.61 316.7 L3.48 316.7 L0 322.69 L0 326.53 L45.31 326.53 L45.31 322.7 L41.61 316.7 Z"
							class="st7"/>
				</g>
				<path d="M41.43 294.41 C41.43 293.69 41.18 293.04 40.75 292.52 C40.46 292.16 40.08 291.87 39.65 291.66 C39.23 291.46
							 38.74 291.34 38.23 291.34 L6.97 291.34 C6.22 291.34 5.53 291.59 4.99 292 C4.62 292.28 4.31 292.64 4.1
							 293.05 C3.88 293.46 3.77 293.92 3.77 294.41 L3.77 314.27 L41.43 314.27 L41.43 294.41 ZM41.61 316.7 L3.48
							 316.7 L0 322.69 L0 326.53 L45.31 326.53 L45.31 322.7 L41.61 316.7 Z" class="st8"/>
			</g>
			<g id="shape68-440" v:mID="68" v:groupContext="shape" v:layerMember="0" transform="translate(6.27128,-30.5037)">
				<title>Blad.68</title>
				<v:userDefs>
					<v:ud v:nameU="SurroundingRegionColor" v:prompt="" v:val="VT0(1):26"/>
					<v:ud v:nameU="SurroundingRegionColor" v:prompt="" v:val="VT5(#000000)"/>
				</v:userDefs>
				<path d="M32.65 326.53 L32.65 309.08 C32.65 308.96 32.63 308.86 32.57 308.77 C32.51 308.65 32.41 308.56 32.29 308.5
							 C32.19 308.44 32.08 308.42 31.96 308.41 L0.69 308.41 C0.57 308.41 0.46 308.44 0.37 308.49 C0.25 308.56
							 0.15 308.65 0.08 308.76 C0.03 308.86 0 308.96 0 309.08 L0 326.53 L32.65 326.53 Z" class="st12"/>
			</g>
			<g id="shape69-442" v:mID="69" v:groupContext="shape" v:layerMember="0" transform="translate(3.88841,-20.3859)">
				<title>Blad.69</title>
				<v:userDefs>
					<v:ud v:nameU="SurroundingRegionColor" v:prompt="" v:val="VT0(1):26"/>
					<v:ud v:nameU="SurroundingRegionColor" v:prompt="" v:val="VT5(#000000)"/>
				</v:userDefs>
				<path d="M1.89 323.29 L0 326.53 L37.45 326.53 L35.56 323.29 L1.89 323.29 Z" class="st4"/>
			</g>
			<g id="shape65-445" v:mID="65" v:groupContext="groupContent" v:layerMember="0">
				<v:textBlock v:margins="rect(4,4,4,4)" v:tabSpace="42.5197"/>
				<v:textRect cx="35.4331" cy="342.531" width="84.32" height="32.0037"/>
				<g id="shadow65-446" v:groupContext="shadow" v:shadowOffsetX="0.345598" v:shadowOffsetY="-1.97279" v:shadowType="1"
						transform="matrix(1,0,0,1,0.345598,1.97279)" class="st1"/>
				<text x="0.33" y="339.53" class="st6" v:langID="1043"><v:paragraph v:horizAlign="1"/><v:tabList/>Doorvoeren door <v:newlineChar/><tspan
							x="-1.59" dy="1.2em" class="st9">beheerorganisatie</tspan></text>			</g>
		</g>
		<g id="shape70-449" v:mID="70" v:groupContext="shape" v:layerMember="1" transform="translate(488.278,-67.424)">
			<title>Dynamische verbindingslijn.70</title>
			<desc>Besluit tot wijziging</desc>
			<v:textBlock v:margins="rect(4,4,4,4)" v:tabSpace="42.5197"/>
			<v:textRect cx="63.7702" cy="308.104" width="45.03" height="27.2035"/>
			<path d="M0 326.53 L63.77 326.53 L63.77 232.95" class="st10"/>
			<rect v:rectContext="textBkgnd" x="47.0695" y="298.504" width="33.4015" height="19.1997" class="st18"/>
			<text x="47.07" y="305.7" class="st14" v:langID="1043"><v:paragraph v:horizAlign="1"/><v:tabList/>Besluit tot <v:newlineChar/><tspan
						x="49.75" dy="1.2em" class="st9">wijziging</tspan></text>		</g>
		<g id="shape71-457" v:mID="71" v:groupContext="shape" v:layerMember="1" transform="translate(552.048,-219.087)">
			<title>Dynamische verbindingslijn.71</title>
			<desc>Statusmelding</desc>
			<v:textBlock v:margins="rect(4,4,4,4)" v:tabSpace="42.5197"/>
			<v:textRect cx="-213.009" cy="243.625" width="56.23" height="17.6036"/>
			<path d="M0 326.53 L0 243.62 L-501.88 243.62" class="st19"/>
			<rect v:rectContext="textBkgnd" x="-236.216" y="238.825" width="46.4131" height="9.59985" class="st13"/>
			<text x="-236.22" y="246.03" class="st14" v:langID="1043"><v:paragraph v:horizAlign="1"/><v:tabList/>Statusmelding</text>		</g>
		<g id="shape73-464" v:mID="73" v:groupContext="shape" v:layerMember="1" transform="translate(452.835,-219.087)">
			<title>Dynamische verbindingslijn.73</title>
			<path d="M0 326.53 L0 243.62 L-402.67 243.62" class="st19"/>
		</g>
	</g>
</svg>
